<?xml version="1.0" encoding="UTF-8"?>
<svg xmlns="http://www.w3.org/2000/svg" width="79" height="79" viewBox="0 0 79 79" fill="none">
  <rect width="78.75" height="78.75" rx="39.375" fill="#CDECF1"></rect>
  <path fill-rule="evenodd" clip-rule="evenodd" d="M35.1214 49.2132C31.0022 46.0296 25.375 40.7707 25.375 35.7983C25.375 27.4916 33.0752 24.3903 39.375 30.8072C45.6748 24.3903 53.375 27.4916 53.375 35.7983C53.375 40.7708 47.7478 46.0297 43.6286 49.2132C41.7638 50.6544 40.8314 51.375 39.375 51.375C37.9186 51.375 36.9862 50.6544 35.1214 49.2132ZM45.675 31.9632C46.2549 31.9632 46.725 32.4373 46.725 33.0221V34.7868H48.475C49.0549 34.7868 49.525 35.2608 49.525 35.8456C49.525 36.4304 49.0549 36.9044 48.475 36.9044H46.725V38.6691C46.725 39.2539 46.2549 39.7279 45.675 39.7279C45.0951 39.7279 44.625 39.2539 44.625 38.6691V36.9044H42.875C42.2951 36.9044 41.825 36.4304 41.825 35.8456C41.825 35.2608 42.2951 34.7868 42.875 34.7868H44.625V33.0221C44.625 32.4373 45.0951 31.9632 45.675 31.9632Z" fill="#1D6B77"></path>
</svg>
