<?xml version="1.0" encoding="UTF-8"?>
<svg xmlns="http://www.w3.org/2000/svg" width="60" height="60" viewBox="0 0 60 60" fill="none">
  <path d="M30 0C46.5685 4.40245e-05 60 13.4315 60 30C59.9998 46.5684 46.5684 60 30 60C13.4316 60 0.000167783 46.5684 0 30C0 13.4315 13.4315 0 30 0ZM30.541 27.0928L23.3818 19.9336L20.0537 23.2617L27.2129 30.4209L20.0537 37.5811L21.7178 39.2451L23.3818 40.9082L30.541 33.748L37.7012 40.9082L39.3652 39.2451L41.0283 37.5811L33.8682 30.4209L41.0283 23.2617L39.3652 21.5977L37.7012 19.9336L30.541 27.0928Z" fill="#E14242"></path>
</svg>
