<?xml version="1.0" encoding="UTF-8"?>
<svg xmlns="http://www.w3.org/2000/svg" width="100" height="100" viewBox="0 0 100 100" fill="none">
  <rect width="100" height="100" rx="50" fill="#10B981"></rect>
  <path d="M52.4 48.8H48V43.92C48 43.7649 48.0001 43.6725 48.002 43.6029C48.0032 43.5587 48.0049 43.5395 48.0053 43.5349C48.0332 43.3658 48.1658 43.2332 48.3349 43.2053C48.3395 43.2049 48.3587 43.2032 48.4029 43.202C48.4725 43.2001 48.5649 43.2 48.72 43.2H52.4C53.9464 43.2 55.2 44.4536 55.2 46C55.2 47.5464 53.9464 48.8 52.4 48.8Z" fill="#ECFDF5"></path>
  <path fill-rule="evenodd" clip-rule="evenodd" d="M66 50C66 58.8366 58.8366 66 50 66C41.1634 66 34 58.8366 34 50C34 41.1634 41.1634 34 50 34C58.8366 34 66 41.1634 66 50ZM44 53.2C44 52.5373 44.5373 52 45.2 52H45.6V51.2H45.2C44.5373 51.2 44 50.6627 44 50C44 49.3373 44.5373 48.8 45.2 48.8H45.6L45.6 43.8584C45.5997 43.6256 45.5994 43.3835 45.6345 43.162C45.8242 41.9639 46.7639 41.0242 47.962 40.8345C48.1835 40.7994 48.4256 40.7997 48.6584 40.8L52.4 40.8C55.2719 40.8 57.6 43.1281 57.6 46C57.6 48.8719 55.2719 51.2 52.4 51.2H48V52H50C50.6627 52 51.2 52.5373 51.2 53.2C51.2 53.8627 50.6627 54.4 50 54.4H48V58C48 58.6627 47.4627 59.2 46.8 59.2C46.1373 59.2 45.6 58.6627 45.6 58V54.4H45.2C44.5373 54.4 44 53.8627 44 53.2Z" fill="#ECFDF5"></path>
</svg>
