<?xml version="1.0" encoding="UTF-8"?>
<svg xmlns="http://www.w3.org/2000/svg" width="168" height="120" viewBox="0 0 168 120" fill="none">
  <g transform="translate(14, 20)">
    <!-- Vietcombank Emblem (Triangular Ribbon Loop) -->
    <g transform="translate(48, 0)">
      <path d="M22 2C11 2 2 10 2 20C2 30 11 38 22 38C33 38 42 30 42 20C42 10 33 2 22 2ZM22 30C16 30 11 25 11 20C11 15 16 10 22 10C28 10 33 15 33 20C33 25 28 30 22 30Z" fill="#1F2933" fill-opacity="0.12"/>
      <path d="M22 5C13.716 5 7 11.716 7 20C7 28.284 13.716 35 22 35C30.284 35 37 28.284 37 20C37 11.716 30.284 5 22 5ZM22 11C26.971 11 31 15.029 31 20C31 24.971 26.971 29 22 29C17.029 29 13 24.971 13 20C13 15.029 17.029 11 22 11Z" fill="#1F2933"/>
      <path d="M19 14L27 20L19 26V14Z" fill="#1F2933"/>
    </g>
    <!-- Vietcombank Wordmark -->
    <text x="70" y="62" text-anchor="middle" font-family="-apple-system, BlinkMacSystemFont, 'Segoe UI', Roboto, 'Helvetica Neue', Arial, sans-serif" font-size="16.5" font-weight="800" letter-spacing="-0.4px" fill="#1F2933">Vietcombank</text>
    <text x="70" y="76" text-anchor="middle" font-family="-apple-system, BlinkMacSystemFont, 'Segoe UI', Roboto, 'Helvetica Neue', Arial, sans-serif" font-size="7.5" font-weight="600" letter-spacing="1px" fill="#52606D">VIETNAM FOREIGN TRADE BANK</text>
  </g>
</svg>